%FSLAX24Y24*%
%MOMM*%
%SFA1B1*%

%IPPOS*%
%ADD10R,2.099996X1.399997*%
%ADD11R,2.099996X0.999998*%
%ADD12R,0.899998X1.399997*%
%ADD13R,0.799998X1.399997*%
%ADD14C,0.250000*%
%ADD15C,0.499999*%
%ADD16C,1.599997*%
%ADD17R,1.599997X1.599997*%
%LNplata_sredn-1*%
%LPD*%
G36*
X1588599Y-988099D02*
X11399D01*
Y-10899*
X1588599*
Y-988099*
G37*
%LNplata_sredn-2*%
%LPC*%
G36*
X216099Y-538099D02*
X175099D01*
Y-572099*
X216099*
Y-538099*
G37*
G36*
X1046499Y-30599D02*
X848399D01*
X845699Y-30899*
X843299Y-31899*
X841199Y-33499*
X839599Y-35599*
X838599Y-37999*
X838299Y-40599*
Y-168899*
X838599Y-171499*
X839599Y-173999*
X841199Y-175999*
X843299Y-177599*
X845699Y-178699*
X848399Y-178999*
X1022899*
X1204699Y-360799*
Y-437499*
X1181100Y-460999*
X1179499Y-462899*
X1178399Y-465099*
X1177699Y-467399*
X1177399Y-469900*
Y-481399*
X1112499*
X1109899Y-481699*
X1107499Y-482799*
X1105399Y-484399*
X1103799Y-486399*
X1102799Y-488899*
X1102399Y-491499*
Y-572899*
X1029999*
X1027499Y-573199*
X1025199Y-573899*
X1022999Y-574999*
X1021099Y-576599*
X997299Y-600399*
X996099Y-599899*
Y-584099*
X955099*
Y-618099*
X977900*
X978399Y-619299*
X813999Y-783699*
X731499*
X728899Y-783999*
X726499Y-784999*
X724399Y-786599*
X722799Y-788699*
X721799Y-791099*
X721399Y-793799*
Y-938499*
X721799Y-941099*
X722799Y-943599*
X724399Y-945699*
X726499Y-947299*
X728899Y-948299*
X731499Y-948599*
X874999*
X877599Y-948299*
X880099Y-947299*
X882199Y-945699*
X883799Y-943599*
X884799Y-941099*
X885099Y-938499*
Y-918399*
X1288799*
X1291199Y-918099*
X1293599Y-917399*
X1295699Y-916199*
X1297599Y-914699*
X1568399Y-643899*
X1569999Y-641999*
X1571199Y-639799*
X1571899Y-637499*
X1572099Y-635000*
Y-477999*
X1577999*
Y-441999*
X1577599*
X1576899Y-440999*
X1577699Y-438099*
X1578099Y-434599*
X1577699Y-431099*
X1576699Y-427699*
X1574999Y-424599*
X1572899Y-421899*
X1574999Y-419199*
X1576699Y-416099*
X1577699Y-412699*
X1578099Y-409199*
X1577699Y-405699*
X1576699Y-402299*
X1574999Y-399199*
X1572899Y-396499*
X1574999Y-393799*
X1576699Y-390699*
X1577699Y-387299*
X1578099Y-383799*
X1577699Y-380299*
X1576699Y-376899*
X1574999Y-373799*
X1572799Y-370999*
X1571999Y-370399*
X1571899Y-369099*
X1573399Y-367299*
X1574899Y-364599*
X1575799Y-361499*
Y-360899*
X1559999*
Y-355899*
X1575799*
Y-355299*
X1574899Y-352199*
X1573399Y-349499*
X1571899Y-347699*
X1571999Y-346399*
X1572799Y-345799*
X1574999Y-342999*
X1576699Y-339899*
X1577699Y-336499*
X1578099Y-332999*
X1577699Y-329499*
X1576699Y-326099*
X1574999Y-322999*
X1572899Y-320299*
X1574999Y-317599*
X1576699Y-314499*
X1577699Y-311099*
X1578099Y-307599*
X1577699Y-304099*
X1576699Y-300699*
X1574999Y-297599*
X1572799Y-294799*
X1569999Y-292599*
X1566899Y-290899*
X1563499Y-289899*
X1559999Y-289499*
X1556499Y-289899*
X1553099Y-290899*
X1549999Y-292599*
X1547199Y-294799*
X1303099*
X1061699Y-53299*
X1059799Y-51799*
X1057599Y-50599*
X1056599Y-50299*
Y-40599*
X1056199Y-37999*
X1055199Y-35599*
X1053599Y-33499*
X1051499Y-31899*
X1049099Y-30899*
X1046499Y-30599*
G37*
G36*
X917399Y-538099D02*
X876399D01*
Y-563099*
X876099*
Y-593099*
Y-618099*
X917099*
Y-593099*
Y-572099*
X917399*
Y-538099*
G37*
G36*
X996099D02*
X955099D01*
Y-572099*
X996099*
Y-538099*
G37*
G36*
X736099D02*
X695099D01*
Y-572099*
X736099*
Y-538099*
G37*
G36*
X476099D02*
X435099D01*
Y-572099*
X476099*
Y-538099*
G37*
G36*
X397399D02*
X356399D01*
Y-563099*
X356099*
Y-593099*
Y-618099*
X397099*
Y-593099*
Y-572099*
X397399*
Y-538099*
G37*
G36*
X216099Y-584099D02*
X175099D01*
Y-618099*
X216099*
Y-584099*
G37*
G36*
X137399Y-538099D02*
X96399D01*
Y-563099*
X96099*
Y-593099*
Y-618099*
X137099*
Y-593099*
Y-572099*
X137399*
Y-538099*
G37*
G36*
X736099Y-584099D02*
X695099D01*
Y-618099*
X736099*
Y-584099*
G37*
G36*
X657399Y-538099D02*
X616399D01*
Y-563099*
X616099*
Y-593099*
Y-618099*
X657099*
Y-593099*
Y-572099*
X657399*
Y-538099*
G37*
G36*
X476099Y-584099D02*
X435099D01*
Y-618099*
X476099*
Y-584099*
G37*
G36*
X738099Y-118999D02*
X697099D01*
Y-152999*
X738099*
Y-118999*
G37*
G36*
X1219399Y-72999D02*
X1178399D01*
Y-97999*
X1178099*
Y-127999*
Y-152999*
X1219099*
Y-127999*
Y-106999*
X1219399*
Y-72999*
G37*
G36*
X458099Y-118999D02*
X417099D01*
Y-152999*
X458099*
Y-118999*
G37*
G36*
X659399Y-72999D02*
X618399D01*
Y-97999*
X618099*
Y-127999*
Y-152999*
X659099*
Y-127999*
Y-106999*
X659399*
Y-72999*
G37*
G36*
X738099D02*
X697099D01*
Y-106999*
X738099*
Y-72999*
G37*
G36*
X1298099D02*
X1257099D01*
Y-106999*
X1298099*
Y-72999*
G37*
G36*
Y-118999D02*
X1257099D01*
Y-152999*
X1298099*
Y-118999*
G37*
G36*
X458099Y-72999D02*
X417099D01*
Y-106999*
X458099*
Y-72999*
G37*
G36*
X379399D02*
X338399D01*
Y-97999*
X338099*
Y-127999*
Y-152999*
X379099*
Y-127999*
Y-106999*
X379399*
Y-72999*
G37*
%LNplata_sredn-3*%
%LPD*%
G36*
X1389899Y-371999D02*
X1389499Y-372099D01*
X1387399Y-373199*
X1385399Y-374799*
X1267299Y-492899*
X1266099Y-492499*
Y-491499*
X1265799Y-488899*
X1264799Y-486399*
X1263199Y-484399*
X1261099Y-482799*
X1258599Y-481699*
X1255999Y-481399*
X1202599*
Y-475099*
X1226099Y-451499*
X1227699Y-449599*
X1228799Y-447499*
X1229499Y-445099*
X1229799Y-442699*
Y-370699*
X1389699*
X1389899Y-371999*
G37*
G36*
X1419699Y-397599D02*
X1417999Y-398499D01*
X1416099Y-400099*
X1273599Y-542499*
X1266099*
Y-529599*
X1399399Y-396399*
X1419299*
X1419699Y-397599*
G37*
G36*
X1541999Y-477999D02*
X1546999D01*
Y-629799*
X1283599Y-893199*
X885099*
Y-848199*
X1062999*
X1065399Y-847999*
X1067799Y-847299*
X1069999Y-846099*
X1071899Y-844499*
X1469499Y-446899*
X1541999*
Y-477999*
G37*
G36*
X1102399Y-619799D02*
X1102799Y-622399D01*
X1103799Y-624799*
X1105399Y-626899*
X1107499Y-628499*
X1109899Y-629499*
X1112499Y-629799*
X1249399*
X1249899Y-630999*
X1057799Y-823099*
X885099*
Y-793799*
X884799Y-791099*
X883799Y-788699*
X882199Y-786599*
X880099Y-784999*
X877599Y-783999*
X874999Y-783699*
X851199*
X850699Y-782499*
X1035199Y-597999*
X1102399*
Y-619799*
G37*
G36*
X1231499Y-341599D02*
X1233399Y-343199D01*
X1235599Y-344299*
X1235199Y-345599*
X1224999*
X1054399Y-174999*
X1055199Y-173999*
X1056199Y-171499*
X1056599Y-168899*
Y-168399*
X1057699Y-167899*
X1231499Y-341599*
G37*
G36*
X1458999Y-422999D02*
X1457299Y-423899D01*
X1455399Y-425499*
X1267299Y-613599*
X1266099Y-613099*
Y-567699*
X1278799*
X1281199Y-567399*
X1283599Y-566699*
X1285799Y-565499*
X1287699Y-563999*
X1429899Y-421799*
X1458699*
X1458999Y-422999*
G37*
G36*
X1289099Y-316199D02*
X1289899Y-316899D01*
X1290999Y-317799*
X1293099Y-318899*
X1292799Y-320199*
X1245599*
X1056599Y-131199*
Y-85399*
X1057699Y-84899*
X1289099Y-316199*
G37*
%LNplata_sredn-4*%
%LPC*%
G36*
X1516099Y-538099D02*
X1475099D01*
Y-572099*
X1516099*
Y-538099*
G37*
G36*
X1437399D02*
X1396399D01*
Y-563099*
X1396099*
Y-593099*
Y-618099*
X1437099*
Y-593099*
Y-572099*
X1437399*
Y-538099*
G37*
G36*
X1516099Y-584099D02*
X1475099D01*
Y-618099*
X1516099*
Y-584099*
G37*
%LNplata_sredn-5*%
%LPD*%
G54D10*
X437599Y-135999D03*
Y-89999D03*
X358599Y-135999D03*
X358899Y-89999D03*
X717599Y-135999D03*
Y-89999D03*
X638599Y-135999D03*
X638899Y-89999D03*
X997599Y-135999D03*
Y-89999D03*
X918599Y-135999D03*
X918899Y-89999D03*
X1277599Y-135999D03*
Y-89999D03*
X1198599Y-135999D03*
X1198899Y-89999D03*
X195599Y-601099D03*
Y-555099D03*
X116599Y-601099D03*
X116899Y-555099D03*
X455599Y-601099D03*
Y-555099D03*
X376599Y-601099D03*
X376899Y-555099D03*
X715599Y-601099D03*
Y-555099D03*
X636599Y-601099D03*
X636899Y-555099D03*
X975599Y-601099D03*
Y-555099D03*
X896599Y-601099D03*
X896899Y-555099D03*
X1235599Y-601099D03*
Y-555099D03*
X1156599Y-601099D03*
X1156899Y-555099D03*
X1495599Y-601099D03*
Y-555099D03*
X1416599Y-601099D03*
X1416899Y-555099D03*
X761399Y-859799D03*
Y-905799D03*
X840399Y-859799D03*
X840099Y-905799D03*
G54D11*
X358599Y-112999D03*
X638599D03*
X918599D03*
X1198599D03*
X116599Y-578099D03*
X376599D03*
X636599D03*
X896599D03*
X1156599D03*
X1416599D03*
X840399Y-882799D03*
G54D12*
X854099Y-835699D03*
X832899Y-835599D03*
X1250299Y-528399D03*
X1229099Y-528199D03*
X1020399Y-62299D03*
X999299Y-62099D03*
G54D13*
X969899Y-62299D03*
X951999D03*
X1190699Y-528399D03*
X1208699D03*
X809899Y-835699D03*
X791899D03*
G54D14*
X0Y-999499D02*
X1599999D01*
Y499*
X0D02*
X1599999D01*
X0Y-999499D02*
Y499D01*
G54D15*
X1556999Y-358099D02*
X1559599Y-355600D01*
X1556999Y-307299D02*
X1559599Y-304800D01*
X1297899Y-307299D02*
X1556999D01*
X1052799Y-62199D02*
X1297899Y-307299D01*
X1556999Y-332699D02*
X1559599Y-330200D01*
X1240399Y-332699D02*
X1556999D01*
X997599Y-89999D02*
X1240399Y-332699D01*
X1217199Y-358099D02*
X1556999D01*
X1217199Y-442699D02*
Y-358099D01*
X1556999Y-408899D02*
X1559599Y-406400D01*
X1427899Y-409199D02*
X1559999D01*
X1278799Y-555099D02*
X1424899Y-408899D01*
X1556999Y-434299D02*
X1559599Y-431800D01*
X1464299Y-434299D02*
X1556999D01*
X1062999Y-835699D02*
X1464299Y-434299D01*
X840099Y-905799D02*
X1288799D01*
X761399D02*
X840099D01*
X1288799D02*
X1559599Y-635000D01*
Y-457200*
X854699Y-835699D02*
X1062999D01*
X761399Y-859799D02*
X840399D01*
X837599Y-856999D02*
X840399Y-859799D01*
X1156899Y-555099D02*
X1235599D01*
X1278799*
X1250999Y-527099D02*
X1394299Y-383699D01*
X1394499Y-383799D02*
X1559999D01*
X1156599Y-601099D02*
X1235599D01*
X1131999D02*
X1156599D01*
X1116299Y-585499D02*
X1131999Y-601099D01*
X1116299Y-585499D02*
Y-540999D01*
X1128999Y-528299*
X918899Y-89999D02*
X997599D01*
X918599Y-135999D02*
X997599D01*
X1217199Y-355600*
X810099Y-835599D02*
X832899D01*
X761499Y-835699D02*
X791899D01*
X1029999Y-585499D02*
X1116299D01*
X761399Y-859799D02*
Y-818499D01*
X769599Y-810299*
X805199*
X1029999Y-585499*
X1128999Y-528299D02*
X1189999D01*
Y-469900*
X1217199Y-442699*
X1208699Y-528399D02*
X1228999D01*
X1020499Y-62199D02*
X1052799D01*
X970099Y-62099D02*
X999299D01*
X896599Y-62199D02*
X953499D01*
X877599Y-81299D02*
X896599Y-62199D01*
X877599Y-118099D02*
Y-81299D01*
Y-118099D02*
X895499Y-135999D01*
X918599*
G54D16*
X1559999Y-307599D03*
Y-332999D03*
Y-358399D03*
Y-383799D03*
Y-434599D03*
Y-409199D03*
G54D17*
X1559999Y-459999D03*
M02*