%FSLAX24Y24*%
%MOMM*%
%SFA1B1*%

%IPPOS*%
%ADD10R,2.099996X1.399997*%
%ADD11R,2.099996X0.999998*%
%ADD12R,0.899998X1.399997*%
%ADD13R,0.799998X1.399997*%
%ADD14C,0.250000*%
%ADD15C,0.499999*%
%ADD16C,1.499997*%
%ADD17R,1.499997X1.499997*%
%LNplata_verhn-1*%
%LPD*%
G36*
X1588599Y-588599D02*
X11399D01*
Y-11399*
X1588599*
Y-588599*
G37*
%LNplata_verhn-2*%
%LPC*%
G36*
X1532899Y-457699D02*
X1491899D01*
Y-491699*
X1532899*
Y-457699*
G37*
G36*
X167899Y-411699D02*
X126899D01*
Y-445699*
X167899*
Y-411699*
G37*
G36*
X947899Y-457699D02*
X906899D01*
Y-491699*
X947899*
Y-457699*
G37*
G36*
X1454199Y-411699D02*
X1413199D01*
Y-436699*
X1412899*
Y-466699*
Y-491699*
X1453899*
Y-466699*
Y-445699*
X1454199*
Y-411699*
G37*
G36*
X752899D02*
X711899D01*
Y-445699*
X752899*
Y-411699*
G37*
G36*
X947899D02*
X906899D01*
Y-445699*
X947899*
Y-411699*
G37*
G36*
X362899D02*
X321899D01*
Y-445699*
X362899*
Y-411699*
G37*
G36*
X557899D02*
X516899D01*
Y-445699*
X557899*
Y-411699*
G37*
G36*
X869199D02*
X828199D01*
Y-436699*
X827899*
Y-466699*
Y-491699*
X868899*
Y-466699*
Y-445699*
X869199*
Y-411699*
G37*
G36*
X284199D02*
X243199D01*
Y-436699*
X242899*
Y-466699*
Y-491699*
X283899*
Y-466699*
Y-445699*
X284199*
Y-411699*
G37*
G36*
X362899Y-457699D02*
X321899D01*
Y-491699*
X362899*
Y-457699*
G37*
G36*
X89199Y-411699D02*
X48199D01*
Y-436699*
X47899*
Y-466699*
Y-491699*
X88900*
Y-466699*
Y-445699*
X89199*
Y-411699*
G37*
G36*
X167899Y-457699D02*
X126899D01*
Y-491699*
X167899*
Y-457699*
G37*
G36*
X674199Y-411699D02*
X633199D01*
Y-436699*
X632899*
Y-466699*
Y-491699*
X673899*
Y-466699*
Y-445699*
X674199*
Y-411699*
G37*
G36*
X752899Y-457699D02*
X711899D01*
Y-491699*
X752899*
Y-457699*
G37*
G36*
X479199Y-411699D02*
X438199D01*
Y-436699*
X437899*
Y-466699*
Y-491699*
X478899*
Y-466699*
Y-445699*
X479199*
Y-411699*
G37*
G36*
X557899Y-457699D02*
X516899D01*
Y-491699*
X557899*
Y-457699*
G37*
G36*
X820599Y-151599D02*
X779599D01*
Y-185599*
X820599*
Y-151599*
G37*
G36*
X929899Y-105599D02*
X888899D01*
Y-130599*
X888599*
Y-160599*
Y-185599*
X929599*
Y-160599*
Y-139599*
X929899*
Y-105599*
G37*
G36*
X632599Y-151599D02*
X591599D01*
Y-185599*
X632599*
Y-151599*
G37*
G36*
X741899Y-105599D02*
X700899D01*
Y-130599*
X700599*
Y-160599*
Y-185599*
X741599*
Y-160599*
Y-139599*
X741899*
Y-105599*
G37*
G36*
X1008599Y-151599D02*
X967599D01*
Y-185599*
X1008599*
Y-151599*
G37*
G36*
X820599Y-105599D02*
X779599D01*
Y-139599*
X820599*
Y-105599*
G37*
G36*
X1008599D02*
X967599D01*
Y-139599*
X1008599*
Y-105599*
G37*
G36*
X1117399D02*
X1076399D01*
Y-139599*
X1117399*
Y-105599*
G37*
G36*
X632599D02*
X591599D01*
Y-139599*
X632599*
Y-105599*
G37*
G36*
X1196399D02*
X1155399D01*
Y-139599*
Y-151599*
X1155099*
Y-185599*
X1189399*
X1189899Y-186799*
X1043799Y-332799*
X984299*
X981599Y-333199*
X979199Y-334199*
X977099Y-335799*
X975499Y-337899*
X974499Y-340299*
X974199Y-342900*
Y-493799*
X972999Y-495300*
X971999Y-497799*
X971599Y-500399*
X971899Y-502699*
X971999Y-502999*
X972999Y-505399*
X974599Y-507499*
X983499Y-516399*
X985599Y-517999*
X987999Y-518999*
X990600Y-519399*
X1385599*
X1388199Y-518999*
X1390599Y-517999*
X1392699Y-516399*
X1394299Y-514299*
X1395299Y-511899*
X1395699Y-509299*
Y-383699*
X1515099Y-264199*
X1540899*
X1541299Y-264599*
X1543999Y-265999*
X1546999Y-266899*
X1547499*
Y-251599*
X1549999*
Y-249099*
X1565299*
Y-248599*
X1564399Y-245599*
X1562999Y-242899*
X1561199Y-240799*
X1561299Y-239499*
X1562399Y-238599*
X1564599Y-235999*
X1566199Y-232899*
X1567199Y-229599*
X1567599Y-226199*
X1567199Y-222799*
X1566199Y-219499*
X1564599Y-216399*
X1562399Y-213799*
Y-213199*
X1564599Y-210599*
X1566199Y-207499*
X1567199Y-204199*
X1567599Y-200799*
X1567199Y-197399*
X1566199Y-194099*
X1564599Y-190999*
X1562399Y-188399*
Y-187799*
X1564599Y-185199*
X1566199Y-182099*
X1567199Y-178799*
X1567599Y-175399*
X1567199Y-171999*
X1566199Y-168699*
Y-168599*
X1566899Y-167499*
X1567499*
Y-132499*
X1532499*
Y-137399*
X1244499*
X1241199Y-137799*
X1238199Y-139099*
X1235499Y-141099*
X1197299Y-179299*
X1196099Y-178799*
Y-160599*
X1196399*
Y-139599*
Y-105599*
G37*
G36*
X1532899Y-411699D02*
X1491899D01*
Y-445699*
X1532899*
Y-411699*
G37*
G36*
X1565299Y-254099D02*
X1552499D01*
Y-266899*
X1552999*
X1555999Y-265999*
X1558699Y-264599*
X1560999Y-262599*
X1562999Y-260299*
X1564399Y-257599*
X1565299Y-254599*
Y-254099*
G37*
G36*
X553899Y-105599D02*
X512899D01*
Y-130599*
X512599*
Y-160599*
Y-185599*
X553599*
Y-160599*
Y-139599*
X553899*
Y-105599*
G37*
G36*
X1117399Y-151599D02*
X1076399D01*
Y-185599*
X1117399*
Y-151599*
G37*
%LNplata_verhn-3*%
%LPD*%
G36*
X1505099Y-240099D02*
X1503599Y-240699D01*
X1500999Y-242699*
X1396799Y-346799*
X1395599Y-346399*
X1395299Y-344099*
X1394299Y-341699*
X1392699Y-339599*
X1388899Y-335799*
X1386799Y-334199*
X1384399Y-333199*
X1381799Y-332799*
X1370699*
X1370199Y-331599*
X1462999Y-238799*
X1504899*
X1505099Y-240099*
G37*
G36*
X1319699Y-163899D02*
X1318199Y-164499D01*
X1315599Y-166499*
X1149199Y-332799*
X1081099*
X1080599Y-331599*
X1249699Y-162599*
X1319399*
X1319699Y-163899*
G37*
G36*
X1452999Y-214699D02*
X1451499Y-215299D01*
X1448899Y-217299*
X1333399Y-332799*
X1298299*
X1297799Y-331599*
X1416099Y-213399*
X1452799*
X1452999Y-214699*
G37*
G36*
X1405999Y-189299D02*
X1404499Y-189899D01*
X1401899Y-191899*
X1260999Y-332799*
X1186499*
X1186099Y-331599*
X1329699Y-187999*
X1405799*
X1405999Y-189299*
G37*
G54D10*
X1096899Y-122599D03*
Y-168599D03*
X1175899Y-122599D03*
X1175599Y-168599D03*
X988099D03*
Y-122599D03*
X909099Y-168599D03*
X909399Y-122599D03*
X800100Y-168599D03*
Y-122599D03*
X721099Y-168599D03*
X721399Y-122599D03*
X612099Y-168599D03*
Y-122599D03*
X533099Y-168599D03*
X533400Y-122599D03*
X1512399Y-474699D03*
Y-428699D03*
X1433399Y-474699D03*
X1433699Y-428699D03*
X1317399Y-474699D03*
Y-428699D03*
X1238399Y-474699D03*
X1238699Y-428699D03*
X1122399Y-474699D03*
Y-428699D03*
X1043399Y-474699D03*
X1043699Y-428699D03*
X927399Y-474699D03*
Y-428699D03*
X848399Y-474699D03*
X848699Y-428699D03*
X732399Y-474699D03*
Y-428699D03*
X653399Y-474699D03*
X653699Y-428699D03*
X537399Y-474699D03*
Y-428699D03*
X458399Y-474699D03*
X458699Y-428699D03*
X342399Y-474699D03*
Y-428699D03*
X263399Y-474699D03*
X263699Y-428699D03*
X147399Y-474699D03*
Y-428699D03*
X68399Y-474699D03*
X68699Y-428699D03*
G54D11*
X1175899Y-145599D03*
X909099D03*
X721099D03*
X533099D03*
X1433399Y-451699D03*
X1238399D03*
X1043399D03*
X848399D03*
X653399D03*
X458399D03*
X263399D03*
X68399D03*
G54D12*
X1120799Y-364599D03*
X1099599Y-364399D03*
X1313799Y-370899D03*
X1292599Y-370799D03*
G54D13*
X1087699Y-402499D03*
X1069699D03*
X1270399D03*
X1288299D03*
G54D14*
X1599999Y-599999D02*
Y0D01*
X0Y-599999D02*
X1599999D01*
X0D02*
Y0D01*
X1599999*
G54D15*
X1244499Y-149999D02*
X1549999D01*
X1151899Y-347999D02*
X1324499Y-175399D01*
X1549999*
X1314499Y-369599D02*
X1457799Y-226199D01*
X1549999*
X1238199Y-428299D02*
Y-373399D01*
Y-428299D02*
X1238699Y-428699D01*
X1238199Y-373399D02*
X1410799Y-200799D01*
X1549999*
X1509899Y-251599D02*
X1549999D01*
X1363999Y-397499D02*
X1509899Y-251599D01*
X1363999Y-402599D02*
Y-397499D01*
Y-458499D02*
Y-402599D01*
X1286799D02*
X1363999D01*
X1347699Y-474699D02*
X1363999Y-458499D01*
X1043699Y-428699D02*
X1122399D01*
X1238699D02*
X1317399D01*
X1172199Y-474699D02*
X1238399D01*
X1122399D02*
X1172199D01*
Y-416599*
X1317399Y-474699D02*
X1347699D01*
X1238399D02*
X1317399D01*
X1043399D02*
X1122399D01*
X1120799Y-368399D02*
X1121399Y-367699D01*
X1277699Y-370799D02*
X1292599D01*
X1270499Y-377899D02*
X1277699Y-370799D01*
X1270499Y-397499D02*
Y-377899D01*
X1088199Y-401299D02*
X1089499Y-402599D01*
X1158199*
X1172199Y-416599*
X1095899Y-364499D02*
X1099599Y-368199D01*
X1121399Y-367699D02*
Y-363199D01*
X1136699Y-347999*
X1151899*
X1070699Y-402599D02*
Y-374599D01*
X1080799Y-364499*
X1095899*
X1024299Y-428699D02*
X1043699D01*
X1016000Y-420399D02*
X1024299Y-428699D01*
X1016000Y-420399D02*
Y-378499D01*
X1244499Y-149999*
G54D16*
X1549999Y-251599D03*
Y-226199D03*
Y-200799D03*
Y-175399D03*
G54D17*
X1549999Y-149999D03*
M02*